<svg version="1.0" xmlns="http://www.w3.org/2000/svg" width="1706.667" height="1706.667" viewBox="0 0 1280 1280"><path d="M618 4.6c-92 5-167.9 23.5-246.5 60.2C284.6 105.3 205 168 144.7 243.5c-72.5 90.7-118.3 197.6-134.2 313-4.8 35.4-6.9 90.1-4.6 124.5 7.6 113.9 42.5 218.4 104.6 312.5C207 1140 360.1 1240.4 533 1270.4c39.6 6.9 64.3 8.9 108 9 36.1.1 50.2-.7 80.5-4.5 185.1-22.9 350.9-126.3 453.7-282.9 91.7-139.5 124.8-308.5 92.7-473-15.7-80.4-48.1-159.4-93.6-228.3C1096.4 172.7 981.7 84 848 38.5c-50.6-17.3-98.5-27.3-153.5-32C677.9 5 630.9 3.9 618 4.6zm-4.5 96.1c-.3 23.6-.8 78.2-1.1 121.4l-.6 78.7-29.2.6c-16 .3-76.2.7-133.8 1l-104.6.4 1.1-3.2c2.1-6.2 24.5-49.4 32.7-63.1 35.1-59 77.4-105.4 124.8-137.2 16.5-11 44.5-24.9 62.1-30.7 14.7-4.9 38.6-10.4 45.4-10.5l3.7-.1-.5 42.7zM678 60c3.6.6 10.8 2.2 16 3.6 47.9 12.9 90.2 38.5 131.6 79.8 38.7 38.7 68 81.2 96.6 140 4.2 8.8 7.6 16.1 7.5 16.2-.1.1-60 .5-133 .9l-132.9.7.6-93.4c.4-51.3.9-106 1.2-121.6l.6-28.3 2.7.5c1.4.3 5.5 1 9.1 1.6zm193 42.8c86.3 36.6 163 93.9 223.6 167.2 8.9 10.7 21.4 27.2 21.4 28.2 0 .5-29.2.8-64.8.8h-64.8l-3.4-7.8c-25.4-58.5-54.9-108.5-87.9-148.7-10.6-12.9-30.6-34.9-37.9-41.6-7.9-7.2-7.8-7.2 13.8 1.9zm-466.1 11.9c-33.9 35.2-63.9 78.1-90 128.8-9.3 18-21.5 44.3-25.4 54.7l-1.8 4.8h-41.1c-22.6 0-50.2.3-61.3.7-12.5.4-20.3.3-20.3-.3 0-1.4 17.1-23.9 29.6-38.9 13.7-16.5 54.1-56.9 70.3-70.5 34-28.2 69.4-51.9 106.1-70.9 16-8.3 44.6-21.9 46.4-22 .4-.1-5.2 6.1-12.5 13.6zm751.9 247.5c38.1 70.3 61.1 146.4 68.7 227.2.9 9.2 1.5 16.9 1.3 17.1-.2.1-40 .5-88.5.7l-88.1.4-.6-10.6c-4.9-87.2-18.1-164-40.2-233.2-1.9-5.9-3.4-11.2-3.4-11.8 0-.7 23.9-1 72.4-1h72.3l6.1 11.2zm-204.3-5.5c25 71.8 40.2 153 45 239.4l.6 11.6-102.8.6c-56.5.4-132.4.7-168.5.7-62 0-65.7-.1-65.4-1.8.2-.9.7-58.5 1.1-127.9l.8-126.3 59.6-.3c32.8-.1 97.5-.3 143.8-.5l84.1-.2 1.7 4.7zM611.1 378c-.3 115.6-1.5 231.2-2.5 231.5-.6.2-75.5.6-166.4 1l-165.3.6.6-10.3c5.2-89.2 17-156.4 40.7-230.1l5-15.7 21.7-.1c110.4-.8 237.6-1.5 250.4-1.5l15.8.1V378zM268 356c0 .5-1.3 5.1-2.9 10.2-19.8 62.7-33.7 140-38.1 210.8-.6 9.6-1.3 21.1-1.6 25.6l-.6 8.1-42 .6c-23.2.4-60.9.7-83.7.7H57.5l.7-11.8c3-45.4 13.3-96.7 28.8-143.2 9.9-29.9 18.6-50.8 32.5-78.5l11.1-22 28.9-.5c56.3-1 108.5-1 108.5 0zm959.6 309.7c-.3 3.8-.8 11.3-1.1 16.8-3.5 61.8-21.5 135.1-47.7 194.5-6.7 15.3-26.6 54.6-28.2 55.9-.6.5-33.6 1.1-73.3 1.3-72.2.3-72.3.3-71.7-1.7.3-1.1 2.1-6.7 4-12.5 22.6-71.2 37.5-160.2 40-239l.7-20.9 13.1-.4c7.2-.1 47.2-.4 88.9-.5l75.8-.2-.5 6.7zm-229.9 14.2c-2.7 79.8-17.9 165.7-42.1 238-3 8.9-5.6 16.5-5.8 16.6-.2.2-65.7.7-145.7 1.1l-145.4.7.7-63.9c.3-35.1.9-97.1 1.2-137.6l.7-73.8 97.6-.3c53.7-.1 129.5-.3 168.5-.5l70.9-.2-.6 19.9zm-389.1 57.3c-.3 41.4-.9 103.3-1.2 137.5l-.7 62.3H549c-31.7 0-94.8.3-140.1.7l-82.4.6-6.8-20.4c-24.8-75.5-38.7-153.8-42.3-238.6l-.7-16.3 62.4-.3c34.3-.1 109.2-.3 166.3-.5l103.9-.2-.7 75.2zm-383.2-57c3.4 84.3 17.7 168.1 41.2 242.6 2.5 7.9 4.3 14.7 3.9 15-.3.3-30.4.8-66.8 1l-66.3.4-7.7-14C88.6 850.9 64.3 768 58 681.5c-.5-7.7-1-14.8-1-15.7 0-1.7 3.4-1.8 53.8-2.1 29.5-.1 67.3-.3 83.8-.5l30.1-.2.7 17.2zm890 307c-2 3.4-14 18.8-24.8 31.8-14.8 17.9-51.5 54.8-69.6 70-40.3 33.9-83 61.3-129.6 83.3-13.8 6.5-37.9 16.7-39.4 16.7-.4 0 2.6-3.3 6.7-7.3 8.5-8.2 27.6-29.3 37.4-41.2 30.8-37.8 61.1-88.5 83-138.7l6.4-14.8 19.5-.3c10.7-.1 40.1-.3 65.3-.5 36.4-.2 45.7.1 45.1 1zm-186.7.5c-.3.5-3.2 6.6-6.6 13.7-18.4 38.8-41.8 75.9-69 109.6-11.7 14.5-44.3 46.8-57.7 57.2-33.8 26.4-67.5 43.7-102.9 52.8-9.7 2.5-29.7 6-34.1 6-1.5 0-1.6-9.7-1-105.3.3-57.8.9-111.6 1.2-119.4l.6-14.3 81.7-.3c44.9-.1 105.6-.3 134.9-.5 29.3-.1 53.1.1 52.9.5zm-322.2 22.5c-.3 11.7-.8 64.9-1.1 118.2l-.6 96.8-4.7-.6c-18.3-2.4-47-12.1-69.1-23.3-28.4-14.5-54.9-34.1-81.5-60.8-36.5-36.4-64.6-76.2-91.7-130l-10-20 42.3-.5c23.3-.3 81.7-.6 129.7-.8l87.2-.2-.5 21.2zm-308.1-3.7c15 33.5 32.4 65.2 50.9 93 20.3 30.3 35.2 48.9 58 72.2 6.1 6.2 10.7 11.3 10.4 11.3-.4 0-6.5-2.5-13.5-5.6C316.6 1138.7 235.8 1075 178 999l-6.1-8 36.8-.3c20.2-.1 47.1-.2 59.6-.2h22.9l7.2 16z"/></svg>