<svg xmlns="http://www.w3.org/2000/svg" viewBox="0 0 350 350"><g stroke-miterlimit="10"><path d="M272.546 237.22c-3.027 0-6.8-.94-10.904-4.119l-47.135-34.442v-50.998l47.178-34.485c7.721-6.127 14.346-4.045 16.867-2.847 3.158 1.501 8.457 5.492 8.457 15.361v94.94c0 9.686-5.17 13.673-8.255 15.182-1.206.592-3.384 1.409-6.208 1.409zm-34.695-50.414l25.818 18.87.004-65.04-25.822 18.874v27.296z"/><path d="M99.834 237.205c-22.302 0-40.534-18.12-40.632-40.483l.004-71.028c.218-9.153 7.555-16.493 16.708-16.707l103.501-.004h.175c22.305 0 40.538 18.123 40.631 40.483v70.821c-.221 9.453-7.838 16.922-16.984 16.922H100.01c-.059-.004-.117-.004-.175-.004zM82.539 132.319v64.348c.042 9.5 7.795 17.19 17.419 17.194h96.923l-.004-64.352c-.042-9.472-7.815-17.19-17.341-17.19H82.538z"/><path d="M173.106 348.156c-96.523 0-175.05-78.528-175.05-175.05 0-96.523 78.527-175.05 175.05-175.05 96.522 0 175.05 78.527 175.05 175.05 0 96.522-78.528 175.05-175.05 175.05zm0-326.76c-83.655 0-151.71 68.055-151.71 151.71s68.055 151.71 151.71 151.71 151.71-68.056 151.71-151.71-68.056-151.71-151.71-151.71z"/></g></svg>
