<svg height="300" width="300" xmlns="http://www.w3.org/2000/svg" viewBox="0 0 100 100"><path d="M89.922 29.633a.975.975 0 00-.146-.252c-.013-.016-.022-.033-.036-.049a.999.999 0 00-.218-.185c-.018-.011-.039-.016-.058-.026-.01-.005-.016-.015-.026-.02l-39-19a.998.998 0 00-.876 0l-39 19c-.01.005-.016.015-.026.02-.019.01-.039.015-.058.026a.995.995 0 00-.218.185c-.014.015-.023.033-.036.049a.992.992 0 00-.146.252c-.009.023-.02.045-.028.069A.99.99 0 0010 30v14c0 .375.21.719.543.89l2.692 1.38v24.389c0 .375.21.719.543.89L49.543 89.89c.013.007.028.004.041.01.133.06.273.1.416.1s.283-.04.415-.1c.013-.006.028-.003.041-.01l35.765-18.341c.333-.171.543-.515.543-.89V46.27l2.692-1.38A1 1 0 0090 44V30a.972.972 0 00-.051-.299c-.007-.024-.018-.045-.027-.068zM50 12.112l36.764 17.911L50 48.876 13.236 30.023 50 12.112zM12 31.637l37 18.974v11.752L12 43.389V31.637zm3.235 15.659L49 64.611v22.753L15.235 70.048V47.296zm69.53 22.752L51 87.363V64.611l33.765-17.315v22.752zM88 43.389L51 62.363V50.611l37-18.974v11.752z"/></svg>