<svg height="300" width="300" xmlns="http://www.w3.org/2000/svg" viewBox="0 0 100 100"><path d="M78.18 39.24h-7.73V24.6c0-.36-.14-.7-.4-.96l-11.9-11.91c-.25-.25-.6-.4-.96-.4H30.91c-.75 0-1.36.61-1.36 1.36v26.55h-7.73C15.3 39.24 10 44.55 10 51.07v27.31c0 .75.61 1.36 1.36 1.36h13.17l-2.1 7.2c-.12.41-.04.85.22 1.19.26.34.66.54 1.08.54h52.54c.43 0 .83-.2 1.09-.54.25-.34.34-.78.22-1.19l-2.1-7.2h13.17c.75 0 1.36-.61 1.36-1.36V51.07C90 44.55 84.7 39.24 78.18 39.24zM58.54 15.96l7.28 7.28h-7.28v-7.28zm-26.28-1.91h23.57V24.6c0 .75.61 1.36 1.36 1.36h10.55v13.28H32.26V14.05zm-6.72 71.9l6.39-21.91h36.15l6.39 21.91H25.54zm61.75-8.93h-12.6L70.9 64.04h5.37c.75 0 1.36-.61 1.36-1.36 0-.75-.61-1.36-1.36-1.36H23.73c-.75 0-1.36.61-1.36 1.36 0 .75.61 1.36 1.36 1.36h5.37l-3.78 12.98H12.71V51.07c0-5.03 4.09-9.11 9.11-9.11h56.35c5.02 0 9.11 4.09 9.11 9.11v25.95z"/><path d="M36.38 69.71h27.24c.75 0 1.36-.61 1.36-1.36s-.61-1.36-1.36-1.36H36.38c-.75 0-1.36.61-1.36 1.36s.61 1.36 1.36 1.36zm-1.65 6.31h30.53c.75 0 1.36-.61 1.36-1.36s-.61-1.36-1.36-1.36H34.73c-.75 0-1.36.61-1.36 1.36s.61 1.36 1.36 1.36zm31.73 3.61H33.54c-.75 0-1.36.61-1.36 1.36 0 .75.61 1.36 1.36 1.36h32.93c.75 0 1.36-.61 1.36-1.36-.01-.75-.62-1.36-1.37-1.36z"/><circle cx="76.27" cy="49.9" r="2.47"/></svg>