<svg height="300" width="300" xmlns="http://www.w3.org/2000/svg" viewBox="0 0 96 96"><path d="M72 33.369H7.5v26.593h7.323v2.668h5.241v-2.668h55.871v2.668h5.243v-2.668H88.5V33.369H72zm-63.5 1h58.511l-.025.012c-.039.017-.075.036-.114.053-.31.135-.613.282-.91.439-.102.054-.2.11-.3.167-.243.137-.479.281-.713.433-.09.06-.182.116-.271.178a13.26 13.26 0 00-.895.669c-.026.022-.051.047-.077.068-.227.189-.446.385-.659.589v-.115H8.5v-2.493zm0 11.945v-8.453h53.714l-.056.065c-.071.084-.144.166-.213.251-.234.289-.461.586-.67.895-.015.022-.027.046-.042.067-.193.29-.373.589-.544.894-.056.101-.107.203-.161.306-.128.244-.248.492-.36.745-.046.104-.093.206-.137.312-.144.35-.277.704-.392 1.067l-.012.046c-.108.351-.198.708-.276 1.07-.024.113-.045.229-.066.343-.053.281-.096.564-.13.852-.014.116-.029.232-.04.35-.036.393-.061.789-.061 1.191 0 3.231 1.198 6.183 3.163 8.453H8.5v-8.454zm10.635 15.387h-3.384v-1.738h3.384v1.738zM8.5 58.963v-3.195h54.547v-.125a12.907 12.907 0 006.218 3.32H8.5zm51.555-12.649c0-6.587 5.358-11.945 11.945-11.945 6.586 0 11.944 5.358 11.944 11.945S78.586 58.26 72 58.26c-6.587 0-11.945-5.359-11.945-11.946zm20.193 15.387h-3.384v-1.738h3.384v1.738zM87.5 46.314v12.648H74.735c5.827-1.26 10.209-6.45 10.209-12.648 0-.402-.024-.799-.061-1.191-.011-.118-.026-.233-.04-.351a12.619 12.619 0 00-.13-.85 12.971 12.971 0 00-.341-1.414l-.013-.046a12.34 12.34 0 00-.392-1.066c-.044-.106-.092-.21-.139-.315a12.246 12.246 0 00-.356-.739c-.055-.104-.107-.208-.165-.311a12.703 12.703 0 00-.536-.882c-.017-.025-.031-.053-.049-.078a13.26 13.26 0 00-.667-.892c-.07-.087-.146-.172-.219-.258a12.939 12.939 0 00-.547-.601c-.081-.084-.161-.169-.245-.25a12.93 12.93 0 00-.745-.678c-.028-.024-.056-.051-.084-.074a13.327 13.327 0 00-.894-.669c-.089-.062-.182-.119-.272-.178a12.828 12.828 0 00-.711-.433c-.1-.057-.198-.113-.3-.167a13.244 13.244 0 00-.914-.441l-.109-.05-.026-.013H87.5v11.947z"/><path d="M72 36.896c-5.192 0-9.418 4.225-9.418 9.418 0 5.192 4.226 9.418 9.418 9.418s9.418-4.226 9.418-9.418c0-5.193-4.226-9.418-9.418-9.418zm0 17.907c-4.681 0-8.488-3.808-8.488-8.488S67.32 37.826 72 37.826s8.488 3.809 8.488 8.489-3.807 8.488-8.488 8.488z"/></svg>