<svg height="300" width="300" xmlns="http://www.w3.org/2000/svg" viewBox="0 0 100 100" fill="none"><path fill-rule="evenodd" clip-rule="evenodd" d="M21.604 22a2 2 0 012-2h15.667a2 2 0 012 2v55a2 2 0 01-2 2H23.604a2 2 0 01-2-2V22zm2 0h15.667v55H23.604V22z" fill="#000"/><path d="M14 26.917a1 1 0 011-1h4.146a1 1 0 000-2H15a3 3 0 00-3 3v46.395a3 3 0 003 3h4.146a1 1 0 100-2H15a1 1 0 01-1-1V26.917zm29.73-3a1 1 0 100 2h41.02a1 1 0 011 1v46.395a1 1 0 01-1 1H43.73a1 1 0 100 2h41.02a3 3 0 003-3V26.917a3 3 0 00-3-3H43.73z" fill="#000"/><path fill-rule="evenodd" clip-rule="evenodd" d="M47.416 31.833a2 2 0 012-2h27.959a2 2 0 012 2v3.375a2 2 0 01-2 2H49.416a2 2 0 01-2-2v-3.375zm2 0h27.959v3.375H49.416v-3.375zm1.23 9.063a2 2 0 00-2 2v3.375a2 2 0 002 2h3.375a2 2 0 002-2v-3.375a2 2 0 00-2-2h-3.375zm3.375 2h-3.375v3.375h3.375v-3.375zm5.688 0a2 2 0 012-2h3.374a2 2 0 012 2v3.375a2 2 0 01-2 2H61.71a2 2 0 01-2-2v-3.375zm2 0h3.374v3.375H61.71v-3.375zm11.062-2a2 2 0 00-2 2v3.375a2 2 0 002 2h3.375a2 2 0 002-2v-3.375a2 2 0 00-2-2h-3.375zm3.375 2h-3.375v3.375h3.375v-3.375zm-27.5 11.062a2 2 0 012-2h3.375a2 2 0 012 2v3.375a2 2 0 01-2 2h-3.375a2 2 0 01-2-2v-3.375zm2 0h3.375v3.375h-3.375v-3.375zm11.063-2a2 2 0 00-2 2v3.375a2 2 0 002 2h3.374a2 2 0 002-2v-3.375a2 2 0 00-2-2H61.71zm3.374 2H61.71v3.375h3.374v-3.375zm5.688 0a2 2 0 012-2h3.375a2 2 0 012 2v3.375a2 2 0 01-2 2h-3.375a2 2 0 01-2-2v-3.375zm2 0h3.375v3.375h-3.375v-3.375zM50.646 63.02a2 2 0 00-2 2v3.376a2 2 0 002 2h3.375a2 2 0 002-2V65.02a2 2 0 00-2-2h-3.375zm3.375 2h-3.375v3.376h3.375V65.02zm5.688 0a2 2 0 012-2h3.374a2 2 0 012 2v3.376a2 2 0 01-2 2H61.71a2 2 0 01-2-2V65.02zm2 0h3.374v3.376H61.71V65.02zm11.062-2a2 2 0 00-2 2v3.376a2 2 0 002 2h3.375a2 2 0 002-2V65.02a2 2 0 00-2-2h-3.375zm3.375 2h-3.375v3.376h3.375V65.02z" fill="#000"/></svg>