<svg height="300" width="300" xmlns="http://www.w3.org/2000/svg" viewBox="0 0 90 90"><path d="M22.543 14.686c-.629 0-1.26.504-1.26 1.5l-.938 26.719h-5.683c-1.41 0-2.588.641-3.38 1.525s-1.271 1.963-1.661 3.031l-2.568 7.047a5.184 5.184 0 011.609-.275h72.416c.563 0 1.099.109 1.604.275l-2.562-7.041c-.391-1.068-.875-2.152-1.662-3.037a4.514 4.514 0 00-3.385-1.525H26.497l.079 2.316c0 1.615-1.505 2.215-2.625 2.215.51-.428.833-1.059.822-1.771l-.967-29.479c-.001-1.012-.637-1.506-1.263-1.5zm12.235 48.035a2.25 2.25 0 11-2.25 2.25 2.252 2.252 0 012.25-2.25zm-9.41 0a2.25 2.25 0 11-.002 4.5 2.25 2.25 0 01.002-4.5zm-9.412 0a2.25 2.25 0 010 4.5 2.25 2.25 0 01-2.249-2.25 2.246 2.246 0 012.249-2.25zm-7.292-6.407c-1.718 0-3.031 1.277-3.031 2.844 0 .137-.026.271-.078.396v10.588c0 2.734 2.322 4.922 5.109 4.922H79.08c2.782 0 5.104-2.188 5.104-4.922V59.555a1.033 1.033 0 01-.079-.396c0-1.566-1.307-2.844-3.025-2.844H8.664z"/><path d="M54.126 62.576a2.078 2.078 0 100 4.156h19.932a2.08 2.08 0 100-4.156H54.126zM35.393 31.014c-1.266 0-1.891-1.543-.989-2.43a14.81 14.81 0 0110.469-4.336c3.921 0 7.692 1.561 10.468 4.336.567.553.579 1.465.016 2.027a1.421 1.421 0 01-2.027-.027 11.96 11.96 0 00-16.915 0c-.271.277-.637.43-1.022.43z"/><path d="M29.482 26.795c-1.198-.125-1.709-1.596-.844-2.434a22.98 22.98 0 0116.234-6.725 22.98 22.98 0 0116.233 6.725 1.42 1.42 0 11-2.005 2 20.127 20.127 0 00-14.228-5.891 20.15 20.15 0 00-14.234 5.891 1.412 1.412 0 01-1.156.434zm10.828 8.738c-1.276 0-1.907-1.551-.991-2.438a7.87 7.87 0 015.553-2.297c2.078 0 4.078.828 5.552 2.297.566.553.578 1.465.014 2.027a1.42 1.42 0 01-2.024-.027 5.01 5.01 0 00-3.542-1.463 5.006 5.006 0 00-3.542 1.463 1.424 1.424 0 01-1.02.438z"/></svg>