<svg height="300" width="300" fill="#000" version="1.1" x="0" y="0" viewBox="0 0 150 150" xml:space="preserve" id="svg102" xmlns="http://www.w3.org/2000/svg"><style type="text/css" id="style2"/><g id="g100"><g id="g38" transform="translate(13.29 10.404)"><path d="M10.994 75.688h97.783a1 1 0 001-1v-20.75a1 1 0 00-1-1H10.994a1 1 0 00-1 1v20.75a1 1 0 001 1zm1-20.75h95.783v18.75H11.994z" id="path36"/></g><path d="M112.844 69.984a4.738 4.738 0 00-4.733 4.733 4.738 4.738 0 004.733 4.732 4.737 4.737 0 004.731-4.732 4.737 4.737 0 00-4.731-4.733zm0 7.465a2.735 2.735 0 01-2.733-2.732 2.735 2.735 0 012.733-2.733 2.735 2.735 0 012.731 2.733 2.735 2.735 0 01-2.731 2.732z" id="path40"/><g id="g46" transform="translate(13.29 10.404)"><path d="M86.71 59.58a4.737 4.737 0 00-4.732 4.733 4.737 4.737 0 004.731 4.732 4.738 4.738 0 004.733-4.733 4.738 4.738 0 00-4.733-4.732zm0 7.465a2.735 2.735 0 01-2.732-2.733 2.735 2.735 0 012.731-2.732 2.735 2.735 0 012.733 2.733 2.735 2.735 0 01-2.733 2.732z" id="path44"/></g><g id="g54" transform="translate(13.29 10.404)"><path d="M76.93 66.532h-40.2a1 1 0 100 2h40.2a1 1 0 100-2z" id="path52"/></g><g id="g58" transform="translate(13.29 10.404)"><path d="M77.068 60.093H36.866a1 1 0 100 2h40.202a1 1 0 100-2z" id="path56"/></g><g id="g62" transform="translate(13.29 10.404)"><path d="M30.258 60.093a1 1 0 00-1 1v6.952a1 1 0 102 0v-6.952a1 1 0 00-1-1z" id="path60"/></g><g id="g66" transform="translate(13.29 10.404)"><path d="M23.371 60.093a1 1 0 00-1 1v6.952a1 1 0 102 0v-6.952a1 1 0 00-1-1z" id="path64"/></g><g id="g70" transform="translate(13.29 10.404)"><path d="M16.485 60.093a1 1 0 00-1 1v6.952a1 1 0 102 0v-6.952a1 1 0 00-1-1z" id="path68"/></g></g></svg>