<svg height="300" width="300" xmlns="http://www.w3.org/2000/svg" viewBox="0 0 98.492 98.492"><path d="M80.373 98.492H18.119a6.38 6.38 0 01-6.373-6.373V6.373A6.38 6.38 0 0118.119 0h62.254a6.38 6.38 0 016.373 6.373v85.746a6.38 6.38 0 01-6.373 6.373zM18.119 1a5.379 5.379 0 00-5.373 5.373v85.746a5.379 5.379 0 005.373 5.373h62.254a5.379 5.379 0 005.373-5.373V6.373A5.379 5.379 0 0080.373 1H18.119zm31.127 94.262c-1.247 0-2.262-1.015-2.262-2.262s1.015-2.262 2.262-2.262 2.262 1.015 2.262 2.262-1.015 2.262-2.262 2.262zm0-3.524c-.696 0-1.262.566-1.262 1.262 0 .696.566 1.262 1.262 1.262.695 0 1.262-.565 1.262-1.262 0-.695-.567-1.262-1.262-1.262zm32.802-1.909H16.444V8.663h65.604v81.166zm-64.604-1h63.604V9.663H17.444v79.166zm31.802-82.69a1.383 1.383 0 01-1.381-1.381 1.382 1.382 0 111.381 1.381zm0-1.762a.382.382 0 10.001.763.382.382 0 00-.001-.763z"/></svg>