<svg height="300" width="300" xmlns="http://www.w3.org/2000/svg" data-name="Layer 1" viewBox="0 0 100 100"><path d="M57.81 86.74H37.17A4.15 4.15 0 0133 82.6V17.4a4.15 4.15 0 014.14-4.14h20.67A4.15 4.15 0 0162 17.4v65.2a4.15 4.15 0 01-4.19 4.14zM37.17 16.26A1.14 1.14 0 0036 17.4v65.2a1.14 1.14 0 001.14 1.14h20.67A1.14 1.14 0 0059 82.6V17.4a1.14 1.14 0 00-1.14-1.14z"/><path d="M52.49 20A2.49 2.49 0 0155 22.46 2.49 2.49 0 0152.49 25 2.49 2.49 0 0150 22.46 2.49 2.49 0 0152.49 20zm0 7.46A2.48 2.48 0 0155 30a2.48 2.48 0 01-2.48 2.48A2.48 2.48 0 0150 30a2.48 2.48 0 012.49-2.54zm-5 32.98a8 8 0 108 8 8 8 0 00-8-8zm0 11.44A3.47 3.47 0 1151 68.41a3.47 3.47 0 01-3.51 3.47z"/></svg>